# xmcd
#
# Track frame offsets: 
#        150
#        10575
#        25660
#        40693
#        56160
#        64432
#        79865
#        95208
#        111457
#        120409
#        144752
#        159584
#        179763
#        193064
#        208674
#        223032
#
# Disc length: 3165 seconds
#
# Revision: 2
# Processed by: cddbd v1.5.2PL0 Copyright (c) Steve Scherf et al.
# Submitted via: ExactAudioCopyFreeDBPlugin 1.0
#
DISCID=e80c5b10
DTITLE=Mikael Gabriel - Versus
DYEAR=2015
DGENRE=Rap
TTITLE0=Versus (Tägää Mun Nimi)
TTITLE1=Mimmit Fiilaa
TTITLE2=Hirviö
TTITLE3=Kun Sä Lähdet
TTITLE4=(Skit)
TTITLE5=Viimeisen Kerran (feat. Diandra)
TTITLE6=Älä Herätä Mua Unesta
TTITLE7=Hyvis
TTITLE8=Uusi Testamentti (Skit 2)
TTITLE9=Kovaa
TTITLE10=Young Huztla (feat. Uniikki)
TTITLE11=Avaimet Lukoille (feat. Asa)
TTITLE12=Bitch
TTITLE13=Woppaa (feat. Kevin Tandu)
TTITLE14=Vastatuuleen
TTITLE15=En Oo Lähös Minnekään
EXTD=
EXTT0=
EXTT1=
EXTT2=
EXTT3=
EXTT4=
EXTT5=
EXTT6=
EXTT7=
EXTT8=
EXTT9=
EXTT10=
EXTT11=
EXTT12=
EXTT13=
EXTT14=
EXTT15=
PLAYORDER=
